<svg width="18" height="18" viewBox="0 0 18 18" fill="none" xmlns="http://www.w3.org/2000/svg">
<g clip-path="url(#clip0_374_4210)">
<path fill-rule="evenodd" clip-rule="evenodd" d="M9.00023 0.0175781L18.0016 5.76326L15.0459 10.1589C15.1793 10.6672 15.2504 11.2007 15.2504 11.7508C15.2504 15.2026 12.4522 18.0008 9.00041 18.0008C5.54863 18.0008 2.75041 15.2026 2.75041 11.7508C2.75041 11.2008 2.82146 10.6674 2.95486 10.1593L-0.000976562 5.76325L9.00023 0.0175781ZM4.78527 11.2039C4.76227 11.383 4.75041 11.5655 4.75041 11.7508C4.75041 14.098 6.6532 16.0008 9.00041 16.0008C11.3476 16.0008 13.2504 14.098 13.2504 11.7508C13.2504 11.5655 13.2386 11.383 13.2156 11.2039H4.78527ZM12.4031 9.20394H5.59776C6.37299 8.16988 7.60857 7.50081 9.00041 7.50081C10.3923 7.50081 11.6278 8.16988 12.4031 9.20394ZM14.046 8.06166L15.199 6.34701L10.0002 3.0286V5.58035C11.6568 5.84669 13.0956 6.76405 14.046 8.06166ZM8.00023 5.58041C6.34374 5.84684 4.90496 6.76425 3.95466 8.06188L2.80161 6.34702L8.00023 3.02862V5.58041Z" fill="black"/>
</g>
<defs>
<clipPath id="clip0_374_4210">
<rect width="18" height="18" fill="white"/>
</clipPath>
</defs>
</svg>
