<svg width="19" height="18" viewBox="0 0 19 18" fill="none" xmlns="http://www.w3.org/2000/svg">
<g clip-path="url(#clip0_417_4723)">
<path fill-rule="evenodd" clip-rule="evenodd" d="M9.15124 0.166016L17.9775 5.79989L15.0614 10.1365C15.2016 10.6509 15.2764 11.1922 15.2764 11.751C15.2764 15.1337 12.5342 17.876 9.15142 17.876C5.76868 17.876 3.02642 15.1337 3.02642 11.751C3.02642 11.1923 3.10122 10.6511 3.24133 10.1369L0.325195 5.79988L9.15124 0.166016ZM4.82769 11.0791C4.79394 11.2981 4.77642 11.5225 4.77642 11.751C4.77642 14.1672 6.73518 16.126 9.15142 16.126C11.5677 16.126 13.5264 14.1672 13.5264 11.751C13.5264 11.5225 13.5089 11.2981 13.4752 11.0791H4.82769ZM12.7955 9.32908H5.50735C6.2914 8.15172 7.63082 7.37595 9.15142 7.37595C10.672 7.37595 12.0115 8.15172 12.7955 9.32908ZM14.1998 8.28163L15.5252 6.31067L10.0262 2.80066V5.68796C11.7556 5.93527 13.252 6.90499 14.1998 8.28163ZM8.27624 5.68801C6.54692 5.93542 5.05063 6.9052 4.10286 8.28186L2.77746 6.31068L8.27624 2.80068V5.68801Z" fill="black"/>
</g>
<defs>
<clipPath id="clip0_417_4723">
<rect width="18" height="18" fill="white" transform="translate(0.151367)"/>
</clipPath>
</defs>
</svg>
